# xmcd
#
# Track frame offsets:
# 150
# 13740
# 32945
# 44972
# 58750
# 71271
# 84565
# 99778
# 110902
# 136812
# 149312
# 161255
# 176165
# 191758
# 206519
# 221628
# 238569
# 254893
# 276592
# 293867
#
# Disc length: 4154 seconds
#
#
# Revision: 0
# Processed by: cddbd v1.5.2PL0 Copyright (c) Steve Scherf et al.
# Submitted via: FreeRIP 2.951 
#
DISCID=3f103814
DTITLE=Cesar Menotti e Fabiano - Palavras de amor
DYEAR=1900
DGENRE=sertanejo
TTITLE0=Como um Anjo
TTITLE1=Tentei te Esquecer/ Coração em Pedaços
TTITLE2=Fica Comigo
TTITLE3=Sem Medo de Ser Feliz
TTITLE4=Mensagem pra Ela
TTITLE5=Esperando na Janela
TTITLE6=Leilão
TTITLE7=Aqui Não
TTITLE8=Lugar Melhor que BH/ Magia e Mistério
TTITLE9=Bão Tamém
TTITLE10=Sempre seu Homem
TTITLE11=Paixão Mineira
TTITLE12=Amargurado
TTITLE13=Na Hora do Adeus
TTITLE14=Caso Marcado
TTITLE15=Nova York/ O que Tiver que Vir, Vir
TTITLE16=Me Apaixonei (A Primeira Vez que Eu Te Vi)
TTITLE17=Cana Verde/ Erguei as Mãos
TTITLE18=outro artista
TTITLE19=outro artista
EXTD=
EXTT0=
EXTT1=
EXTT2=
EXTT3=
EXTT4=
EXTT5=
EXTT6=
EXTT7=
EXTT8=
EXTT9=
EXTT10=
EXTT11=
EXTT12=
EXTT13=
EXTT14=
EXTT15=
EXTT16=
EXTT17=
EXTT18=
EXTT19=
PLAYORDER=
